<?xml version="1.0" standalone="no"?>
<!DOCTYPE svg PUBLIC "-//W3C//DTD SVG 20010904//EN"
 "http://www.w3.org/TR/2001/REC-SVG-20010904/DTD/svg10.dtd">
<svg version="1.0" xmlns="http://www.w3.org/2000/svg"
 width="127.000000pt" height="127.000000pt" viewBox="0 0 127.000000 127.000000"
 preserveAspectRatio="xMidYMid meet">
<metadata>
Created by potrace 1.11, written by Peter Selinger 2001-2013
</metadata>
<g transform="translate(0.000000,127.000000) scale(0.100000,-0.100000)"
fill="#000000" stroke="none">
<path d="M671 903 c-17 -21 -31 -42 -31 -48 0 -5 17 -30 38 -53 l38 -44 79 -1
c75 -1 79 1 102 29 41 51 40 69 -7 114 -41 39 -43 40 -115 40 -73 0 -74 0
-104 -37z"/>
<path d="M964 835 c-8 -5 -25 -28 -38 -49 l-23 -39 52 -56 53 -55 83 0 82 -1
24 54 24 54 -53 48 c-29 27 -62 49 -73 50 -85 5 -119 3 -131 -6z"/>
<path d="M140 715 c-19 -16 -47 -43 -61 -59 l-27 -28 20 -47 c35 -83 35 -84
140 -82 88 1 94 3 117 29 13 15 33 38 45 52 38 44 38 48 2 105 -26 39 -42 55
-58 55 -13 1 -50 2 -83 3 -54 2 -64 -1 -95 -28z"/>
<path d="M681 684 l-40 -56 47 -64 47 -64 94 3 94 2 28 50 c15 28 28 57 28 65
1 8 -22 39 -50 68 l-51 52 -78 0 -79 0 -40 -56z"/>
<path d="M388 554 c-29 -36 -53 -67 -53 -69 0 -1 18 -34 40 -74 l40 -71 105 2
105 3 43 72 44 71 -49 64 -48 65 -87 1 -87 2 -53 -66z"/>
</g>
</svg>
